Coordinates
version=1
nRows=25
nColumns=34
inDegrees=no

Units are S.I. units (second, meters, Newtons, ...)
If the header above contains a line with 'inDegrees', this indicates whether rotational values are in degrees (yes) or radians (no).

endheader
time	pelvis_tilt	pelvis_list	pelvis_rotation	pelvis_tx	pelvis_ty	pelvis_tz	hip_flexion_r	hip_adduction_r	hip_rotation_r	knee_angle_r	ankle_angle_r	subtalar_angle_r	mtp_angle_r	hip_flexion_l	hip_adduction_l	hip_rotation_l	knee_angle_l	ankle_angle_l	subtalar_angle_l	mtp_angle_l	lumbar_extension	lumbar_bending	lumbar_rotation	arm_flex_r	arm_add_r	arm_rot_r	elbow_flex_r	pro_sup_r	arm_flex_l	arm_add_l	arm_rot_l	elbow_flex_l	pro_sup_l
0.44	0.227032	-0.0297393	0.0563083	0.307436	1.07471	-0.162882	-0.326048	0.11149	-0.197476	0.119552	0.286529	0.296118	-0.0167722	0.271314	-0.119881	-0.203252	0.532023	0.189412	0.0908579	-0.0350187	-0.486258	-0.00525544	0.184683	0.0950681	-0.280454	-0.297423	0.858715	1.96107	-0.188984	-0.104054	-0.107636	0.563947	1.74348
0.45	0.225415	-0.0281688	0.0512667	0.321113	1.07258	-0.163548	-0.337612	0.106455	-0.207313	0.126092	0.305543	0.317121	-0.0168441	0.269846	-0.113909	-0.226808	0.473076	0.197855	0.139366	-0.0349782	-0.485714	-0.0084469	0.188138	0.108361	-0.290108	-0.291662	0.878031	1.96023	-0.204	-0.0977162	-0.111465	0.535808	1.75127
0.46	0.223999	-0.0264025	0.0465848	0.334919	1.07031	-0.164344	-0.348801	0.100751	-0.219278	0.134045	0.324611	0.339441	-0.0169159	0.267374	-0.106917	-0.250788	0.415235	0.207375	0.191234	-0.0349375	-0.485118	-0.0114559	0.190609	0.121269	-0.299411	-0.28546	0.897327	1.96117	-0.219579	-0.0913913	-0.115905	0.509939	1.75926
0.47	0.222831	-0.0244198	0.0422158	0.348876	1.06794	-0.165272	-0.359641	0.0943086	-0.233102	0.143403	0.343432	0.362809	-0.0169878	0.263977	-0.0987887	-0.274533	0.359172	0.217244	0.243742	-0.0348968	-0.484475	-0.0143466	0.192259	0.133558	-0.308318	-0.279058	0.916694	1.96385	-0.235652	-0.0851286	-0.120774	0.486526	1.76676
0.48	0.221936	-0.0222418	0.0380609	0.363007	1.06551	-0.166322	-0.370191	0.0871243	-0.248243	0.154061	0.36162	0.386738	-0.0170597	0.259743	-0.0895697	-0.297415	0.305679	0.226779	0.294129	-0.0348561	-0.483775	-0.0171774	0.193352	0.144938	-0.316783	-0.27274	0.936237	1.96811	-0.252119	-0.0789915	-0.125865	0.465715	1.77325
0.49	0.221327	-0.0199196	0.0339897	0.377338	1.06305	-0.167477	-0.380537	0.0792607	-0.263943	0.165831	0.378733	0.410547	-0.0171316	0.254785	-0.0794615	-0.318873	0.255665	0.235435	0.339936	-0.0348152	-0.482992	-0.0199982	0.194215	0.15508	-0.324754	-0.266811	0.956053	1.97372	-0.268858	-0.0730535	-0.130976	0.447601	1.77836
0.5	0.221006	-0.0175178	0.0298679	0.391894	1.06061	-0.168707	-0.390771	0.0708305	-0.279317	0.178477	0.394312	0.433422	-0.0172035	0.24924	-0.0687875	-0.338445	0.210121	0.24283	0.379293	-0.0347743	-0.482092	-0.0228543	0.195171	0.163651	-0.332165	-0.261574	0.976216	1.98043	-0.28573	-0.0673923	-0.13595	0.432222	1.78201
0.51	0.220973	-0.0150922	0.0255844	0.406696	1.05822	-0.169983	-0.400981	0.0619687	-0.293471	0.191755	0.407917	0.454499	-0.0172754	0.243252	-0.0579355	-0.355782	0.17004	0.248717	0.411093	-0.0347333	-0.481039	-0.025795	0.196493	0.170352	-0.338934	-0.257297	0.996748	1.98795	-0.302587	-0.062081	-0.140703	0.419551	1.78433
0.52	0.221231	-0.0126651	0.0210726	0.421762	1.05591	-0.171276	-0.411225	0.0527968	-0.305615	0.205473	0.419154	0.472943	-0.0173473	0.236953	-0.0472814	-0.370652	0.136295	0.252899	0.43503	-0.0346922	-0.479811	-0.028884	0.198342	0.174949	-0.344956	-0.254186	1.0176	1.99603	-0.319273	-0.0571804	-0.145231	0.409488	1.78561
0.53	0.221797	-0.0102044	0.0163223	0.437103	1.05372	-0.17256	-0.421519	0.0433835	-0.315166	0.219548	0.427692	0.488028	-0.0174192	0.23042	-0.0371099	-0.382918	0.109498	0.255142	0.451494	-0.0346511	-0.478413	-0.0322104	0.200741	0.177304	-0.350115	-0.252357	1.03864	2.00441	-0.335629	-0.0527302	-0.14961	0.401863	1.78621
0.54	0.222703	-0.0076133	0.0113797	0.452721	1.05166	-0.173822	-0.431813	0.0337133	-0.321818	0.23406	0.433255	0.499196	-0.0174911	0.223655	-0.0275496	-0.392495	0.0898725	0.255098	0.461346	-0.0346099	-0.476883	-0.0358936	0.203567	0.177388	-0.354288	-0.251825	1.05964	2.01287	-0.35149	-0.0487441	-0.153976	0.396434	1.7865
0.55	0.223996	-0.00471446	0.00633427	0.468611	1.04979	-0.175068	-0.441971	0.0236806	-0.325558	0.249291	0.435592	0.506068	-0.0175631	0.216569	-0.0185511	-0.399313	0.0771674	0.252284	0.465635	-0.0345686	-0.475292	-0.0400694	0.206571	0.175276	-0.357358	-0.252513	1.0803	2.02121	-0.366686	-0.045208	-0.158487	0.392903	1.78675
0.56	0.225727	-0.00130912	0.00130451	0.484753	1.04813	-0.176303	-0.451748	0.0130952	-0.326626	0.265737	0.434423	0.508417	-0.017635	0.208999	-0.00989631	-0.403316	0.0706731	0.246137	0.465352	-0.0345273	-0.473734	-0.0448848	0.209425	0.171134	-0.359222	-0.254262	1.10026	2.02919	-0.381038	-0.042084	-0.163289	0.390926	1.78714
0.57	0.227935	0.00280168	-0.00358263	0.501116	1.04673	-0.177542	-0.460777	0.00171883	-0.325435	0.284093	0.429384	0.506114	-0.0177069	0.200761	-0.00126481	-0.404501	0.0693274	0.236143	0.46127	-0.0344859	-0.472306	-0.0504677	0.211773	0.165189	-0.359807	-0.256865	1.11913	2.0366	-0.394359	-0.0393177	-0.168482	0.390145	1.78773
0.58	0.230624	0.00777807	-0.00820732	0.517656	1.04559	-0.178802	-0.468553	-0.0106911	-0.322484	0.305206	0.419979	0.499075	-0.0177789	0.191723	0.00767664	-0.403002	0.0719082	0.221997	0.453927	-0.0344444	-0.471081	-0.0569025	0.213281	0.157713	-0.359067	-0.260087	1.13651	2.04316	-0.40646	-0.0368483	-0.174096	0.390211	1.78846
0.59	0.233734	0.0137085	-0.0124676	0.534318	1.04473	-0.180101	-0.474445	-0.0243365	-0.318264	0.33001	0.405564	0.487215	-0.0178508	0.181883	0.0171813	-0.399181	0.0772616	0.203778	0.443717	-0.0344028	-0.470093	-0.0642119	0.21367	0.148995	-0.356986	-0.263695	1.15205	2.04861	-0.417152	-0.0346207	-0.180081	0.390816	1.78923
0.6	0.237108	0.0205909	-0.0162854	0.551041	1.04416	-0.181453	-0.477712	-0.0393435	-0.31319	0.359429	0.385384	0.470435	-0.0179228	0.17142	0.027355	-0.393686	0.0845041	0.182056	0.43105	-0.0343612	-0.46932	-0.0723518	0.212742	0.139327	-0.353574	-0.267471	1.16541	2.05267	-0.426255	-0.0325978	-0.186313	0.391715	1.78992
0.61	0.24047	0.0283651	-0.0196079	0.56775	1.04386	-0.18286	-0.477561	-0.0557399	-0.30755	0.394275	0.358656	0.448642	-0.0179948	0.160695	0.0381238	-0.387424	0.0931359	0.157909	0.416485	-0.0343196	-0.468693	-0.0812125	0.210386	0.128992	-0.348861	-0.271228	1.17631	2.05511	-0.43361	-0.0307694	-0.192601	0.392748	1.7904
0.62	0.243523	0.0369277	-0.022404	0.584365	1.04381	-0.184317	-0.473188	-0.073459	-0.301492	0.435128	0.324729	0.421803	-0.0180667	0.150234	0.0492663	-0.381439	0.103024	0.13283	0.400793	-0.0342779	-0.468073	-0.0906492	0.206574	0.118255	-0.342892	-0.27482	1.18456	2.05577	-0.439075	-0.029158	-0.19871	0.39384	1.79064
0.63	0.245967	0.04614	-0.0246692	0.600808	1.044	-0.185812	-0.463873	-0.0923562	-0.295023	0.482237	0.283276	0.390017	-0.0181387	0.140612	0.0605005	-0.376711	0.114274	0.108529	0.384899	-0.0342361	-0.467285	-0.100521	0.201343	0.107355	-0.335725	-0.27814	1.19003	2.05459	-0.442537	-0.0278189	-0.204381	0.394999	1.79064
0.64	0.247528	0.0558643	-0.0264317	0.617004	1.04438	-0.187327	-0.449082	-0.112225	-0.288029	0.535451	0.234512	0.353595	-0.0182107	0.132321	0.0715745	-0.373951	0.127035	0.0866892	0.369751	-0.0341942	-0.466166	-0.110718	0.194786	0.0965054	-0.327431	-0.281121	1.19263	2.05161	-0.443905	-0.0268344	-0.209354	0.396296	1.79047
0.65	0.248002	0.0659841	-0.0277579	0.632895	1.04494	-0.188839	-0.428549	-0.132805	-0.280299	0.594179	0.179391	0.313125	-0.0182827	0.125639	0.0823402	-0.373445	0.141295	0.068723	0.356161	-0.0341523	-0.464607	-0.121165	0.187045	0.0858885	-0.318097	-0.283732	1.19235	2.04701	-0.44311	-0.0263019	-0.213387	0.39784	1.79019
0.66	0.247302	0.0764034	-0.0287548	0.648438	1.04564	-0.190327	-0.402343	-0.153774	-0.271552	0.6574	0.119721	0.269489	-0.0183548	0.120536	0.0927832	-0.375	0.156735	0.0555874	0.344679	-0.0341104	-0.462588	-0.131813	0.178307	0.0756569	-0.307836	-0.285969	1.18923	2.04108	-0.440102	-0.0263197	-0.216271	0.399749	1.78989
0.67	0.245495	0.0870268	-0.0295622	0.663612	1.04649	-0.191767	-0.370883	-0.174737	-0.261478	0.723722	0.0581572	0.22384	-0.0184268	0.116645	0.102999	-0.378018	0.172691	0.0476885	0.335535	-0.0340684	-0.4602	-0.142606	0.168807	0.0659337	-0.296784	-0.287841	1.18329	2.03417	-0.434851	-0.0269703	-0.21784	0.402129	1.78962
0.68	0.242823	0.0977182	-0.0303356	0.678414	1.04747	-0.193138	-0.334911	-0.195205	-0.249783	0.791484	-0.00197772	0.177521	-0.0184989	0.113311	0.113126	-0.381649	0.188209	0.0448854	0.328668	-0.0340264	-0.45764	-0.153437	0.158812	0.0568173	-0.285111	-0.289365	1.17459	2.02668	-0.427345	-0.0283054	-0.217993	0.405055	1.7894
